<svg width="631" height="74" viewBox="0 0 631 74" fill="none" xmlns="http://www.w3.org/2000/svg">
<path d="M87.97 4.28H79.99V4.805H99.415V5.33H84.19V6.37999H87.025V7.955H88.285V9.53H83.455V10.58H85.135V12.68H83.875V14.78H92.695V15.305H95.32V15.83H88.075V17.93H93.85V18.98H82.09V21.08H88.915V21.605H87.34V22.655H87.655V23.705H89.545V25.28H84.925V25.805H91.33V27.905H91.435V28.955H88.285V30.53H87.34V31.58H77.785V33.68H83.14V34.205H87.445V35.255H78.73V37.355H91.645V37.88H88.075V39.455H88.81V40.505H90.28V42.605H88.285V44.18H86.92V45.755H88.18V46.28H88.495V48.38H89.335V48.905H88.285V51.53H91.015V52.58H83.77V53.63H88.18V55.205H88.285V56.255H87.76V57.305H88.285V58.355H87.55V58.88H84.505V60.455H80.83V61.505H87.025V62.555H85.03V63.605H91.225V65.18H97.63V67.28H88.285V68.33H80.83V69.905H91.015V71.165C91.015 71.305 90.98 71.445 90.91 71.585C90.91 71.725 90.91 71.865 90.91 72.005H73.48C73.41 72.285 73.235 72.635 72.955 73.055H79.36C79.08 73.335 78.87 73.51 78.73 73.58H86.92C86.57 73.86 86.08 74 85.45 74H64.87C64.24 74 63.75 73.86 63.4 73.58H55.21C54.93 73.51 54.72 73.335 54.58 73.055H48.07C47.79 72.635 47.615 72.285 47.545 72.005H64.87C64.8 71.795 64.765 71.515 64.765 71.165V69.905H54.58V68.33H62.035V67.28H71.38V65.18H64.975V63.605H58.78V62.555H36.73V63.605H42.61V65.18H50.485V67.28H47.65V68.33H40.195V69.905H26.65V71.165C26.65 71.305 26.615 71.445 26.545 71.585C26.545 71.725 26.51 71.865 26.44 72.005H37.57C37.5 72.285 37.325 72.635 37.045 73.055H47.335C47.055 73.335 46.845 73.51 46.705 73.58H44.29C43.94 73.86 43.45 74 42.82 74H22.24C21.61 74 21.12 73.86 20.77 73.58H23.08C22.94 73.51 22.73 73.335 22.45 73.055H12.16C11.95 72.845 11.775 72.495 11.635 72.005H0.505C0.435 71.865 0.399999 71.585 0.399999 71.165V69.905H13.945V68.33H21.4V67.28H24.235V65.18H16.36V63.605H10.48V62.555H32.95V61.505H10.375V60.455H30.64V58.88H22.135V58.355H23.71V57.305H18.88V56.255H18.04V55.205H19.405V53.63H18.565V52.58H11.845V51.53H18.145V49.43H18.355V48.905H18.46V48.38H18.25V46.28H17.83V45.755H19.405V44.18H18.04V42.605H20.35V40.505H18.355V39.455H18.565V37.88H19.195V37.355H9.22V35.255H22.24V34.205H12.475V33.68H8.17V31.58H19.93V30.53H19.405V28.955H21.61V27.905H19.195V25.805H23.92V25.28H17.935V23.705H18.145V22.655H17.83V21.605H19.405V21.08H12.58V18.98H24.34V17.93H18.565V15.83H25.81V15.305H23.185V14.78H14.365V12.68H15.625V10.58H13.945V9.53H18.775V7.955H17.515V6.37999H14.68V5.33H29.905V4.805H10.48V4.28H18.46V3.755H30.64V3.335C30.64 2.77499 30.71 2.39 30.85 2.18H14.365C14.435 1.97 14.54 1.795 14.68 1.655C14.82 1.445 14.96 1.27 15.1 1.13H28.96C29.52 0.709996 30.115 0.499995 30.745 0.499995H94.585C95.355 0.499995 95.95 0.709996 96.37 1.13H82.51C82.86 1.41 83.14 1.76 83.35 2.18H99.835C100.045 2.46 100.15 2.845 100.15 3.335V3.755H87.97V4.28ZM63.295 25.28V23.705H61.405V23.6H44.395V23.705H44.185V25.28H50.17V25.805H45.445V27.905H47.86V28.955H45.655V30.53H46.18V31.58H34.42V33.68H38.725V34.205H48.49V35.255H35.47V37.355H45.445V37.88H44.815V39.455H44.605V40.505H46.6V42.605H44.29V44.18H45.655V45.755H44.08V46.28H44.5V48.38H44.71V48.905H44.605V49.43H44.395V51.53H38.095V52.58H44.815V53.63H45.655V55.205H44.29V56.255H45.13V57.305H49.96V58.355H48.385V58.88H56.89V60.455H58.255V58.88H61.3V58.355H62.035V57.305H61.51V56.255H62.035V55.205H61.93V53.63H57.52V52.58H64.765V51.53H62.035V48.905H63.085V48.38H62.245V46.28H61.93V45.755H60.67V44.18H62.035V42.605H64.03V40.505H62.56V39.455H61.825V37.88H65.395V37.355H52.48V35.255H61.195V34.205H56.89V33.68H51.535V31.58H61.09V30.53H62.035V28.955H65.185V27.905H65.08V25.805H58.675V25.28H63.295ZM36.625 61.505H54.58V60.455H36.625V61.505ZM60.775 62.555V61.505H59.2V62.555H60.775ZM166.243 55.73H174.538V57.305H158.578V59.405H168.868V61.505H159.838V63.605H160.993V65.18H160.258V66.23H158.053V67.28H157.948V68.33H160.153V70.43H163.198V71.165C163.198 71.305 163.163 71.41 163.093 71.48H144.403C144.333 71.62 144.298 71.795 144.298 72.005H151.543C151.333 72.705 150.948 73.23 150.388 73.58H148.393C148.043 73.86 147.553 74 146.923 74H92.2184C91.6584 74 91.1334 73.86 90.6434 73.58H92.6384C92.1484 73.23 91.7634 72.705 91.4834 72.005H84.1334C84.0634 71.865 84.0284 71.69 84.0284 71.48H102.823V70.43H99.7784V68.33H97.5734V67.28H97.6784V66.23H99.8834V65.18H100.618V63.605H99.4634V61.505H108.493V59.405H98.2034V57.305H114.163V55.73H105.868V54.68H108.283V53.63H109.333V52.58H97.6784V51.53H94.9484V49.955H104.713V49.43H96.9434V48.38H99.2534V47.33H100.933V45.755H100.723V43.655H99.6734V41.555H98.0984V40.505H99.3584V38.405H98.2034V37.355H99.8834V35.78H100.303V34.205H102.193V33.68H100.408V31.58H98.8334V30.005H99.2534V28.43H99.4634V26.33H101.038V24.23H98.7284V22.13H99.0434V20.03H101.983V18.455H100.408V16.88H99.5684V16.355H103.978V14.78H111.748V13.73H108.598V12.68H98.4134V12.155H99.5684V10.58H99.6734V9.005H99.9884V6.90499H99.8834V4.28H99.6734V3.335C99.6734 3.055 99.7084 2.845 99.7784 2.705H98.7284C99.0084 1.235 99.9184 0.499995 101.458 0.499995H155.323C156.933 0.499995 157.843 1.235 158.053 2.705H159.103C159.173 2.845 159.208 3.055 159.208 3.335V4.28H159.418V6.90499H159.523V9.005H159.208V10.58H159.103V12.155H157.948V12.68H168.133V13.73H171.283V14.78H163.513V16.355H159.103V16.88H159.943V18.455H161.518C161.378 19.155 161.133 19.68 160.783 20.03H157.843C157.353 20.66 156.653 20.975 155.743 20.975H124.243V22.13H123.928V24.23H126.238V26.33H124.663V27.59H153.853C154.623 27.59 155.288 27.87 155.848 28.43H155.638C155.988 28.78 156.233 29.305 156.373 30.005H156.058V31.58H157.633V33.68H159.418V34.205H157.528V35.78H157.108V37.355H155.428V38.405H156.583V40.505H155.323V41.555H156.898V43.655H157.948V44.075C157.948 44.845 157.773 45.405 157.423 45.755H157.633C157.073 46.525 156.303 46.91 155.323 46.91H126.133V47.33H124.453V48.38H122.143V49.43H129.913V49.955H120.148V51.53H122.878V52.58H134.533V53.525H166.873C167.223 53.525 167.503 53.56 167.713 53.63H166.558C167.258 53.84 167.783 54.19 168.133 54.68H165.718C165.998 55.1 166.173 55.45 166.243 55.73ZM236.173 26.855H235.018V28.43H237.433V28.955H236.488L236.173 31.055H237.328C237.258 31.195 237.223 31.37 237.223 31.58H235.753C235.683 31.93 235.613 32.28 235.543 32.63C235.473 32.98 235.368 33.33 235.228 33.68C235.228 33.96 235.158 34.31 235.018 34.73H233.968L233.338 36.305H233.233C233.163 36.655 233.023 37.005 232.813 37.355C232.603 37.705 232.428 38.055 232.288 38.405H232.498L232.183 38.93H233.128C232.918 39.28 232.708 39.63 232.498 39.98C232.288 40.33 232.043 40.68 231.763 41.03H232.498C232.218 41.38 231.903 41.73 231.553 42.08C231.273 42.43 230.958 42.78 230.608 43.13H230.398C229.978 43.48 229.558 43.83 229.138 44.18C228.788 44.53 228.368 44.88 227.878 45.23H227.248C226.688 45.58 226.093 45.93 225.463 46.28C224.903 46.63 224.308 46.98 223.678 47.33H223.993C223.853 47.4 223.678 47.47 223.468 47.54C223.258 47.61 223.083 47.715 222.943 47.855H222.838C221.508 48.485 220.038 49.01 218.428 49.43C217.658 49.64 216.853 49.85 216.013 50.06C215.173 50.2 214.333 50.34 213.493 50.48H213.388C210.588 50.9 207.613 51.11 204.463 51.11H197.113V52.055H197.848V54.155H199.108V54.68H196.588V55.73H197.533V57.305H194.908V57.83H198.163V59.93H197.218V62.555H197.638V64.13H196.378V66.23H195.853V67.28H199.318V68.855H196.378V70.955H198.373V71.165C198.373 71.515 198.338 71.795 198.268 72.005H197.638C197.638 72.075 197.568 72.25 197.428 72.53H197.743C197.673 72.67 197.533 72.845 197.323 73.055H197.428C197.148 73.335 196.938 73.51 196.798 73.58H196.903C196.553 73.86 196.063 74 195.433 74H173.803C173.173 74 172.683 73.86 172.333 73.58H172.123C171.983 73.51 171.773 73.335 171.493 73.055C171.423 72.915 171.353 72.81 171.283 72.74C171.213 72.67 171.178 72.6 171.178 72.53H170.863C170.723 72.25 170.653 72.075 170.653 72.005H171.178C171.108 71.795 171.073 71.515 171.073 71.165V70.955H169.078V68.855H172.018V67.28H168.553V66.23H169.078V64.13H170.338V62.555H169.918V59.93H170.863V57.83H167.608V57.305H170.233V55.73H169.288V54.68H171.808V54.155H170.548V52.055H169.813V50.48H169.918V47.33H169.708V45.23H170.338V43.13H170.653V41.03H169.918V38.93H168.973V38.405H168.763V36.305H168.868V34.73H169.918V31.58H169.603V31.055H169.288V28.955H170.443V28.43H170.023V26.855H170.443V25.805H170.338V24.755H167.398V22.655H155.743V21.08H161.098V18.98H170.653V17.93H166.663V15.83H164.248V14.255H165.823V13.73H163.618V11.63H171.703V11.105H170.653V9.53H168.238V7.955H164.878V5.85499H172.438V4.28H168.763V3.755H168.028V3.23H169.918C169.918 2.95 169.988 2.6 170.128 2.18H168.973C169.043 1.97 169.148 1.795 169.288 1.655C169.428 1.445 169.568 1.27 169.708 1.13H176.113C176.673 0.709996 177.268 0.499995 177.898 0.499995H209.713C212.793 0.499995 215.628 0.709996 218.218 1.13H211.918C212.758 1.27 213.563 1.445 214.333 1.655C215.173 1.795 215.943 1.97 216.643 2.18H217.903C218.463 2.32 218.988 2.495 219.478 2.705C220.038 2.845 220.563 3.02 221.053 3.23H219.163C219.373 3.3 219.583 3.37 219.793 3.43999C220.003 3.51 220.213 3.615 220.423 3.755H221.053L222.208 4.28H225.988L228.718 5.85499H221.053C221.613 6.135 222.103 6.485 222.523 6.90499C222.943 7.255 223.363 7.605 223.783 7.955H227.143L228.718 9.53H231.133C231.343 9.81 231.553 10.09 231.763 10.37C232.043 10.58 232.253 10.825 232.393 11.105H233.443C233.653 11.315 233.793 11.49 233.863 11.63H225.778C225.988 11.91 226.198 12.26 226.408 12.68C226.618 13.03 226.828 13.38 227.038 13.73H229.243L229.453 14.255H227.983L228.613 15.83H231.133L231.763 17.93H235.753L236.068 18.98H226.513C226.653 19.26 226.723 19.61 226.723 20.03C226.793 20.38 226.863 20.73 226.933 21.08H240.373C240.443 21.36 240.478 21.64 240.478 21.92C240.478 22.13 240.513 22.375 240.583 22.655H240.058C240.128 23.005 240.163 23.355 240.163 23.705C240.233 24.055 240.268 24.405 240.268 24.755H236.173V26.855ZM209.818 28.43H207.403L207.718 26.855H208.873V25.805C208.873 25.665 208.873 25.49 208.873 25.28C208.873 25.07 208.838 24.895 208.768 24.755H212.863C212.793 24.405 212.723 24.055 212.653 23.705C212.583 23.285 212.478 22.935 212.338 22.655H212.758C212.618 22.095 212.268 21.57 211.708 21.08H198.268C197.428 20.38 196.413 20.03 195.223 20.03H187.873V21.08H182.518V22.655H194.173V24.755H197.113V25.805H197.218V26.855H196.798V28.43H197.218V28.955H196.063V31.055H196.378V31.58H196.693V31.685H204.043C204.463 31.685 204.778 31.65 204.988 31.58H206.458C206.738 31.51 206.983 31.44 207.193 31.37C207.403 31.23 207.613 31.125 207.823 31.055H206.773C207.613 30.565 208.243 29.865 208.663 28.955H209.608C209.748 28.675 209.818 28.5 209.818 28.43ZM319.551 31.055H315.876V33.155H316.926V34.205H310.311V34.73H311.361V36.305H312.936V36.83H311.886V37.88H316.716V38.93H317.451V40.505H317.031V42.08H317.976V44.18H315.246V45.755H324.276V47.33H319.761V48.905H315.876V51.005H317.136V52.055H321.756V52.58H316.086V53.105H311.466V54.68H306.951V56.78H323.646V58.355H317.346V60.455H318.186V61.505H316.191V62.03H317.346V63.08H317.556V63.605H317.976V64.13H316.086V65.18H317.556V66.23H317.451V68.33H315.981V68.855H317.451V70.43H313.251V71.48H317.556C317.416 72.46 316.996 73.16 316.296 73.58H315.771C315.421 73.86 314.896 74 314.196 74H293.616C292.986 74 292.496 73.86 292.146 73.58H292.671C291.971 73.16 291.551 72.46 291.411 71.48H287.001V70.43H291.201V68.855H289.731V68.33H291.201V66.23H291.306V65.18H289.836V64.13H291.726V63.605H291.306V63.08H291.096V62.03H289.941V61.505H291.936V60.455H291.096V58.355H297.396V56.78H280.701V54.68H285.216V53.105H289.836V52.58H295.506V52.055H290.886V51.005H289.626V48.905H293.511V47.33H298.026V45.755H287.841L286.686 47.33H287.001L285.846 48.905H282.591L281.016 51.005H283.431L282.696 52.055H288.471L288.051 52.58H271.566L271.146 53.105H269.151L267.996 54.68H276.921L275.346 56.78H279.021L277.866 58.355H279.336L277.761 60.455H276.711L275.976 61.505H276.606L276.291 62.03H274.821L273.981 63.08H277.026L276.711 63.605H274.716L273.456 65.18H273.981L273.141 66.23H272.196L270.621 68.33H271.881L271.461 68.855H271.671L270.516 70.43H271.566L270.726 71.48H269.361L269.256 71.585C268.976 72.005 268.661 72.39 268.311 72.74C268.031 73.09 267.646 73.37 267.156 73.58H266.841C266.561 73.65 266.246 73.755 265.896 73.895C265.546 73.965 265.126 74 264.636 74H246.471C245.841 74 245.351 73.86 245.001 73.58H245.316C244.546 73.16 244.091 72.46 243.951 71.48H245.421V70.43H244.371V68.855H244.161V68.33H242.901V66.23H243.951V65.18H243.531V63.605H245.526V63.08H242.481V62.03H243.951V61.505H243.321V60.455H244.371V58.355H242.901V56.78H239.226V54.68H230.301V53.105H232.296V52.58H248.886V52.055H243.006V51.005H240.696V48.905H243.951V47.33H243.636V45.755H251.301V44.18H244.581V42.08H243.531V40.505H243.951V38.93H243.216V37.88H238.386V36.83H239.436V36.305H237.861V34.73H246.786V34.205H242.376V33.155H244.161V31.055H243.951V30.53H249.516V29.48H241.221V27.905H260.016V26.33H254.031V25.805H245.841V24.23H258.441V23.18H238.596V22.13H244.371V21.08H244.581V20.03H243.951V18.455H243.321V16.88H244.056V15.305H243.321V14.255H243.951V12.155H243.741V11.105H244.371V9.53H242.586V8.48H242.901V6.37999H243.951V5.85499H243.321V4.805H243.636V3.23H245.106C245.246 2.32 245.596 1.62 246.156 1.13H245.736C246.296 0.709996 246.891 0.499995 247.521 0.499995H268.101C268.801 0.499995 269.396 0.709996 269.886 1.13H270.306C271.006 1.69 271.356 2.39 271.356 3.23H269.886V4.805H269.571V5.85499H270.201V6.37999H269.151V8.48H268.836V9.53H270.621V11.105H269.991V12.155H270.201V14.255H269.571V15.305H270.306V16.88H269.571V18.455H270.201V20.03H270.831V21.08H270.621V22.13H264.846V23.18H283.746L284.481 22.13H278.391L279.126 21.08H278.181L278.916 20.03H280.596L281.646 18.455H280.596L281.751 16.88H283.011L284.061 15.305H283.431L284.166 14.255H284.586L285.636 12.68H285.531L285.846 12.155H285.636L286.371 11.105H284.796L285.846 9.53H288.891L289.626 8.48H287.946L289.416 6.37999H289.521L289.941 5.85499H288.051L288.786 4.805H290.781L292.041 2.915C292.321 2.565 292.601 2.25 292.881 1.96999C293.161 1.62 293.476 1.34 293.826 1.13H292.041C292.811 0.709996 293.686 0.499995 294.666 0.499995H312.831C313.531 0.499995 314.126 0.709996 314.616 1.13H316.296C316.996 1.69 317.346 2.39 317.346 3.23V4.805H315.351V5.85499H317.241V6.37999H317.031V8.48H318.711V9.53H315.666V11.105H317.241V12.155H317.451V12.68H317.556V14.255H317.136V15.305H317.766V16.88H316.506V18.455H317.556V20.03H315.876V21.08H316.821V22.13H322.806V23.18H325.431V24.23H311.151V25.805H321.861V26.33H322.701V27.905H333.096V29.48H321.966V30.53H319.551V31.055ZM286.371 23.18H284.691V24.23H285.636L286.371 23.18ZM267.471 27.905V29.48H275.766V30.53H277.866L278.601 29.48H289.731L290.781 27.905H267.471ZM271.356 31.055H275.136L275.451 30.53H270.201V31.055H270.411V32.525L271.356 31.055ZM270.306 34.205L271.041 33.155H268.626V34.205H270.306ZM291.726 44.18V42.08H291.516L289.941 44.18H291.726ZM425.346 48.905H402.351V49.955H420.936V52.055H412.746V52.58H404.556V54.155H399.201V55.73H396.891V57.305H385.866V59.405H402.351V61.505H393.951V62.555H401.301V63.605H405.711V65.18H407.286V66.755H408.756V67.805H408.861V69.905H411.066V70.43H409.911V70.955H407.286V71.48H401.196L400.881 72.53H397.626C397.346 73.02 397.031 73.37 396.681 73.58H400.566C400.216 73.86 399.726 74 399.096 74H380.091C379.461 74 378.971 73.86 378.621 73.58H374.631C374.281 73.37 373.966 73.02 373.686 72.53H376.836C376.626 72.18 376.521 71.83 376.521 71.48H382.611V70.955H385.236V70.43H386.391V69.905H384.186V67.805H384.081V66.755H382.611V65.18H381.036V63.605H376.626V62.555H369.276V61.505H377.676V59.405H340.506V61.505H355.521V62.555H353.316V65.18H353.736V66.755H351.741V67.805H351.006V69.905H351.321V70.43H359.091V70.955H352.581V71.48H356.361C356.361 71.83 356.256 72.18 356.046 72.53H350.271C350.061 73.02 349.711 73.37 349.221 73.58H348.591C348.241 73.86 347.716 74 347.016 74H328.011C327.381 74 326.891 73.86 326.541 73.58H327.276C327.066 73.44 326.856 73.3 326.646 73.16C326.506 72.95 326.366 72.74 326.226 72.53H332.106C331.896 72.18 331.791 71.83 331.791 71.48H327.906V70.955H334.416V70.43H326.646V69.905H326.331V67.805H327.066V66.755H329.061V65.18H328.641V62.555H330.846V61.505H315.831V59.405H338.511V57.305H317.826V55.73H317.301V54.155H325.911V52.58H328.956V52.055H322.236V49.955H336.936V48.905H347.226L346.911 48.38H328.221V47.855H331.686V47.33H329.061V45.23H329.166V44.18H331.581V42.605H331.056V40.505H328.221V39.98H318.771V38.93H326.961V38.405H326.646V37.355H331.266V36.305H333.786V34.73H317.196V32.63H330.426V31.58H318.666V30.005H330.846V28.955H329.376V27.905H325.386V27.38H327.381V25.805H339.456V24.23H337.671V23.18H327.696V22.655H327.171V21.08H332.106V18.98H321.186V17.93H324.966V17.405H326.016V16.355H323.601V14.78H333.051V13.205H328.221V11.105H336.201V10.58H333.681V8.48H343.026V6.90499H321.081V5.33H344.391V3.755H334.101V2.705H326.226C326.296 2.355 326.401 2.075 326.541 1.865C326.751 1.585 326.961 1.34 327.171 1.13H327.696C328.116 0.709996 328.711 0.499995 329.481 0.499995H346.071C347.051 0.499995 347.856 0.709996 348.486 1.13H347.961C348.381 1.34 348.731 1.585 349.011 1.865C349.291 2.145 349.501 2.425 349.641 2.705H357.621L358.041 3.335L358.251 3.755H368.646L369.591 5.33H346.281L347.226 6.90499H369.066L370.011 8.48H360.771L362.031 10.58H364.551L364.866 11.105H356.886L358.146 13.205H362.871L363.816 14.78H354.471L355.416 16.355H357.831L358.461 17.405H357.411L357.726 17.93H353.946L354.576 18.98H365.496L366.756 21.08H361.821L362.766 22.655H363.291L363.606 23.18H371.376L371.691 22.655H368.856L369.801 21.08H373.266L374.526 18.98H372.636L373.266 17.93H364.761L365.076 17.405H375.681L376.311 16.355H375.471L376.416 14.78H382.716L383.661 13.205H383.976L385.236 11.105H380.406L380.721 10.58H391.746L393.006 8.48H392.376L393.321 6.90499H377.151L378.096 5.33H393.636L394.581 3.755H383.136L383.346 3.335C383.486 3.055 383.626 2.845 383.766 2.705H383.976C384.186 2.425 384.431 2.145 384.711 1.865C384.991 1.585 385.306 1.34 385.656 1.13H385.446C386.076 0.709996 386.881 0.499995 387.861 0.499995H404.451C405.151 0.499995 405.746 0.709996 406.236 1.13H406.551C406.761 1.34 406.936 1.585 407.076 1.865C407.286 2.075 407.426 2.355 407.496 2.705H407.286V3.755H418.836V5.33H403.296V6.90499H419.466V8.48H420.096V10.58H409.071V11.105H413.901V13.205H413.586V14.78H407.286V16.355H408.126V17.405H397.521V17.93H406.026V18.98H407.916V21.08H404.556V22.655H407.286V23.18H412.221V24.23H401.406V25.805H409.176V27.38H407.286V27.905H407.706V28.955H409.176V30.005H396.996V31.58H408.756V32.63H395.526V34.73H412.116V36.305H409.596V37.355H404.976V38.405H405.291V38.93H397.101V39.98H406.551V40.505H409.386V42.605H406.971V44.18H405.186V45.23H407.286V47.33H408.231V47.855H412.746V48.38H425.346V48.905ZM376.206 23.18H373.581L374.211 24.23H375.576L376.206 23.18ZM363.816 27.38L364.131 27.905H368.226L368.541 28.535L368.961 27.905H368.541L368.856 27.38H370.641L371.586 25.805H364.971L365.916 27.38H363.816ZM379.356 44.18H382.296V42.605H380.301L379.356 44.18ZM353.736 47.33H356.361V47.855H352.896V48.38H360.036L359.721 47.855H358.041L357.621 47.33H356.676L355.416 45.23H355.626L354.996 44.18H353.841V45.23H353.736V47.33ZM400.671 48.905V48.38H388.071V47.855H383.556V47.33H382.611V45.23H380.931L379.566 47.33H380.616L380.301 47.855H381.981L381.666 48.38H373.056V48.905H361.611V49.955H346.911V52.055H353.631V52.58H350.586V54.155H341.976V55.73H342.501V57.305H372.216V55.73H374.526V54.155H365.706C365.496 54.435 365.286 54.715 365.076 54.995C364.866 55.275 364.586 55.52 364.236 55.73H363.921C363.291 56.15 362.591 56.36 361.821 56.36H354.471C353.631 56.36 352.896 56.15 352.266 55.73H352.581C352.301 55.52 352.021 55.275 351.741 54.995C351.531 54.715 351.321 54.435 351.111 54.155H361.926L361.611 53.735L360.876 52.58H357.096L356.781 52.055H364.131L362.766 49.955H375.051L374.421 48.905H400.671ZM396.261 52.055V49.955H382.506L381.246 52.055H374.001L373.686 52.58H377.466L376.731 53.735L376.416 54.155H379.881V52.58H388.071V52.055H396.261ZM485.242 55.73H493.537V57.305H477.577V59.405H487.867V61.505H478.837V63.605H479.992V65.18H479.257V66.23H477.052V67.28H476.947V68.33H479.152V70.43H482.197V71.165C482.197 71.305 482.162 71.41 482.092 71.48H463.402C463.332 71.62 463.297 71.795 463.297 72.005H470.542C470.332 72.705 469.947 73.23 469.387 73.58H467.392C467.042 73.86 466.552 74 465.922 74H411.217C410.657 74 410.132 73.86 409.642 73.58H411.637C411.147 73.23 410.762 72.705 410.482 72.005H403.132C403.062 71.865 403.027 71.69 403.027 71.48H421.822V70.43H418.777V68.33H416.572V67.28H416.677V66.23H418.882V65.18H419.617V63.605H418.462V61.505H427.492V59.405H417.202V57.305H433.162V55.73H424.867V54.68H427.282V53.63H428.332V52.58H416.677V51.53H413.947V49.955H423.712V49.43H415.942V48.38H418.252V47.33H419.932V45.755H419.722V43.655H418.672V41.555H417.097V40.505H418.357V38.405H417.202V37.355H418.882V35.78H419.302V34.205H421.192V33.68H419.407V31.58H417.832V30.005H418.252V28.43H418.462V26.33H420.037V24.23H417.727V22.13H418.042V20.03H420.982V18.455H419.407V16.88H418.567V16.355H422.977V14.78H430.747V13.73H427.597V12.68H417.412V12.155H418.567V10.58H418.672V9.005H418.987V6.90499H418.882V4.28H418.672V3.335C418.672 3.055 418.707 2.845 418.777 2.705H417.727C418.007 1.235 418.917 0.499995 420.457 0.499995H474.322C475.932 0.499995 476.842 1.235 477.052 2.705H478.102C478.172 2.845 478.207 3.055 478.207 3.335V4.28H478.417V6.90499H478.522V9.005H478.207V10.58H478.102V12.155H476.947V12.68H487.132V13.73H490.282V14.78H482.512V16.355H478.102V16.88H478.942V18.455H480.517C480.377 19.155 480.132 19.68 479.782 20.03H476.842C476.352 20.66 475.652 20.975 474.742 20.975H443.242V22.13H442.927V24.23H445.237V26.33H443.662V27.59H472.852C473.622 27.59 474.287 27.87 474.847 28.43H474.637C474.987 28.78 475.232 29.305 475.372 30.005H475.057V31.58H476.632V33.68H478.417V34.205H476.527V35.78H476.107V37.355H474.427V38.405H475.582V40.505H474.322V41.555H475.897V43.655H476.947V44.075C476.947 44.845 476.772 45.405 476.422 45.755H476.632C476.072 46.525 475.302 46.91 474.322 46.91H445.132V47.33H443.452V48.38H441.142V49.43H448.912V49.955H439.147V51.53H441.877V52.58H453.532V53.525H485.872C486.222 53.525 486.502 53.56 486.712 53.63H485.557C486.257 53.84 486.782 54.19 487.132 54.68H484.717C484.997 55.1 485.172 55.45 485.242 55.73ZM558.217 10.055H538.687V12.155H546.142V13.73H554.227V15.305H554.017V16.88H557.062V18.98H545.617V19.505H543.412V20.24C543.412 20.73 543.307 21.185 543.097 21.605H550.552C550.062 22.585 549.257 23.075 548.137 23.075H530.707V23.18H531.757V25.28H531.967V27.38H531.442V29.48H530.077V31.055H535.327V32.105H530.917V33.68H528.607V35.78H532.597V36.83H531.862V38.93H531.127V41.03H529.867V43.13H528.712V44.705H532.597V46.28H531.022V48.38H531.652V48.905H532.387V49.955H537.637V51.53H534.067V53.63H535.642V55.73H531.232V57.83H533.017V58.88H533.752V60.455H535.432V62.555H534.802V64.13H532.072V65.705H531.757V66.755H531.652V68.33H532.807V69.905H531.862V71.165C531.862 71.515 531.827 71.795 531.757 72.005H530.707C530.497 72.705 530.112 73.23 529.552 73.58H529.762C529.412 73.86 528.922 74 528.292 74H507.292C506.732 74 506.207 73.86 505.717 73.58H505.507C505.017 73.23 504.632 72.705 504.352 72.005H505.297C505.227 71.795 505.192 71.515 505.192 71.165V69.905H506.137V68.33H504.982V66.755H505.087V65.705H505.402V64.13H508.132V62.555H508.762V60.455H507.082V58.88H506.347V57.83H504.562V55.73H508.972V53.63H507.397V51.53H510.967V49.955H505.717V48.905H504.982V48.38H504.352V46.28H505.927V44.705H502.042V43.13H503.197V41.03H504.457V38.93H505.192V36.83H505.927V35.78H501.937V33.68H504.247V32.105H508.657V31.055H503.407V29.48H504.772V27.38H505.297V25.28H505.087V23.18H504.037V23.075H486.607C485.557 23.075 484.717 22.585 484.087 21.605H476.632C476.562 21.395 476.492 21.185 476.422 20.975C476.282 20.765 476.212 20.52 476.212 20.24V19.505H478.417V18.98H489.862V16.88H486.817V15.305H487.027V13.73H478.942V12.155H471.487V10.055H491.017V8.48H480.097V6.37999H482.197V4.28H484.927V3.755H486.502V3.335C486.502 2.635 486.712 2.075 487.132 1.655H484.822C485.382 0.884996 486.152 0.499995 487.132 0.499995H548.662C549.642 0.499995 550.412 0.884996 550.972 1.655H553.177C553.527 2.145 553.702 2.705 553.702 3.335V3.755H552.127V4.28H549.397V6.37999H547.297V8.48H558.217V10.055ZM625.924 26.855H624.769V28.43H627.184V28.955H626.239L625.924 31.055H627.079C627.009 31.195 626.974 31.37 626.974 31.58H625.504C625.434 31.93 625.364 32.28 625.294 32.63C625.224 32.98 625.119 33.33 624.979 33.68C624.979 33.96 624.909 34.31 624.769 34.73H623.719L623.089 36.305H622.984C622.914 36.655 622.774 37.005 622.564 37.355C622.354 37.705 622.179 38.055 622.039 38.405H622.249L621.934 38.93H622.879C622.669 39.28 622.459 39.63 622.249 39.98C622.039 40.33 621.794 40.68 621.514 41.03H622.249C621.969 41.38 621.654 41.73 621.304 42.08C621.024 42.43 620.709 42.78 620.359 43.13H620.149C619.729 43.48 619.309 43.83 618.889 44.18C618.539 44.53 618.119 44.88 617.629 45.23H616.999C616.439 45.58 615.844 45.93 615.214 46.28C614.654 46.63 614.059 46.98 613.429 47.33H613.744C613.604 47.4 613.429 47.47 613.219 47.54C613.009 47.61 612.834 47.715 612.694 47.855H612.589C611.259 48.485 609.789 49.01 608.179 49.43C607.409 49.64 606.604 49.85 605.764 50.06C604.924 50.2 604.084 50.34 603.244 50.48H603.139C600.339 50.9 597.364 51.11 594.214 51.11H586.864V52.055H587.599V54.155H588.859V54.68H586.339V55.73H587.284V57.305H584.659V57.83H587.914V59.93H586.969V62.555H587.389V64.13H586.129V66.23H585.604V67.28H589.069V68.855H586.129V70.955H588.124V71.165C588.124 71.515 588.089 71.795 588.019 72.005H587.389C587.389 72.075 587.319 72.25 587.179 72.53H587.494C587.424 72.67 587.284 72.845 587.074 73.055H587.179C586.899 73.335 586.689 73.51 586.549 73.58H586.654C586.304 73.86 585.814 74 585.184 74H563.554C562.924 74 562.434 73.86 562.084 73.58H561.874C561.734 73.51 561.524 73.335 561.244 73.055C561.174 72.915 561.104 72.81 561.034 72.74C560.964 72.67 560.929 72.6 560.929 72.53H560.614C560.474 72.25 560.404 72.075 560.404 72.005H560.929C560.859 71.795 560.824 71.515 560.824 71.165V70.955H558.829V68.855H561.769V67.28H558.304V66.23H558.829V64.13H560.089V62.555H559.669V59.93H560.614V57.83H557.359V57.305H559.984V55.73H559.039V54.68H561.559V54.155H560.299V52.055H559.564V50.48H559.669V47.33H559.459V45.23H560.089V43.13H560.404V41.03H559.669V38.93H558.724V38.405H558.514V36.305H558.619V34.73H559.669V31.58H559.354V31.055H559.039V28.955H560.194V28.43H559.774V26.855H560.194V25.805H560.089V24.755H557.149V22.655H545.494V21.08H550.849V18.98H560.404V17.93H556.414V15.83H553.999V14.255H555.574V13.73H553.369V11.63H561.454V11.105H560.404V9.53H557.989V7.955H554.629V5.85499H562.189V4.28H558.514V3.755H557.779V3.23H559.669C559.669 2.95 559.739 2.6 559.879 2.18H558.724C558.794 1.97 558.899 1.795 559.039 1.655C559.179 1.445 559.319 1.27 559.459 1.13H565.864C566.424 0.709996 567.019 0.499995 567.649 0.499995H599.464C602.544 0.499995 605.379 0.709996 607.969 1.13H601.669C602.509 1.27 603.314 1.445 604.084 1.655C604.924 1.795 605.694 1.97 606.394 2.18H607.654C608.214 2.32 608.739 2.495 609.229 2.705C609.789 2.845 610.314 3.02 610.804 3.23H608.914C609.124 3.3 609.334 3.37 609.544 3.43999C609.754 3.51 609.964 3.615 610.174 3.755H610.804L611.959 4.28H615.739L618.469 5.85499H610.804C611.364 6.135 611.854 6.485 612.274 6.90499C612.694 7.255 613.114 7.605 613.534 7.955H616.894L618.469 9.53H620.884C621.094 9.81 621.304 10.09 621.514 10.37C621.794 10.58 622.004 10.825 622.144 11.105H623.194C623.404 11.315 623.544 11.49 623.614 11.63H615.529C615.739 11.91 615.949 12.26 616.159 12.68C616.369 13.03 616.579 13.38 616.789 13.73H618.994L619.204 14.255H617.734L618.364 15.83H620.884L621.514 17.93H625.504L625.819 18.98H616.264C616.404 19.26 616.474 19.61 616.474 20.03C616.544 20.38 616.614 20.73 616.684 21.08H630.124C630.194 21.36 630.229 21.64 630.229 21.92C630.229 22.13 630.264 22.375 630.334 22.655H629.809C629.879 23.005 629.914 23.355 629.914 23.705C629.984 24.055 630.019 24.405 630.019 24.755H625.924V26.855ZM599.569 28.43H597.154L597.469 26.855H598.624V25.805C598.624 25.665 598.624 25.49 598.624 25.28C598.624 25.07 598.589 24.895 598.519 24.755H602.614C602.544 24.405 602.474 24.055 602.404 23.705C602.334 23.285 602.229 22.935 602.089 22.655H602.509C602.369 22.095 602.019 21.57 601.459 21.08H588.019C587.179 20.38 586.164 20.03 584.974 20.03H577.624V21.08H572.269V22.655H583.924V24.755H586.864V25.805H586.969V26.855H586.549V28.43H586.969V28.955H585.814V31.055H586.129V31.58H586.444V31.685H593.794C594.214 31.685 594.529 31.65 594.739 31.58H596.209C596.489 31.51 596.734 31.44 596.944 31.37C597.154 31.23 597.364 31.125 597.574 31.055H596.524C597.364 30.565 597.994 29.865 598.414 28.955H599.359C599.499 28.675 599.569 28.5 599.569 28.43Z" fill="white"/>
</svg>
